<?xml version="1.0" standalone="no"?>
<!DOCTYPE svg PUBLIC "-//W3C//DTD SVG 20010904//EN"
 "http://www.w3.org/TR/2001/REC-SVG-20010904/DTD/svg10.dtd">
<svg version="1.0" xmlns="http://www.w3.org/2000/svg"
 width="260.000000pt" height="260.000000pt" viewBox="0 0 260.000000 260.000000"
 preserveAspectRatio="xMidYMid meet">
<metadata>
Created by potrace 1.11, written by Peter Selinger 2001-2013
</metadata>
<g transform="translate(0.000000,260.000000) scale(0.100000,-0.100000)"
fill="#000000" stroke="none">
<path d="M434 2418 c-11 -13 -43 -44 -72 -69 -28 -26 -49 -49 -46 -53 2 -3 1
-4 -3 -1 -7 5 -43 -24 -43 -35 0 -3 46 -54 103 -112 96 -98 320 -335 384 -404
15 -17 53 -58 83 -91 44 -48 126 -139 195 -217 6 -6 35 -40 65 -76 30 -36 59
-68 64 -72 9 -6 -14 -42 -61 -95 -11 -12 -28 -34 -39 -49 -10 -14 -26 -34 -35
-43 -9 -9 -87 -106 -175 -216 -87 -110 -162 -201 -166 -203 -5 -2 -8 -10 -8
-18 0 -8 -4 -14 -8 -14 -4 0 -26 -24 -47 -52 -22 -29 -42 -55 -45 -58 -3 -3
-27 -33 -54 -68 -56 -73 -65 -52 73 -169 l83 -71 62 77 c34 42 93 117 131 166
38 50 72 92 75 95 3 3 21 25 40 50 19 25 37 47 40 50 3 3 17 21 32 42 15 20
33 42 40 50 7 7 60 72 118 143 57 72 110 136 116 142 14 14 16 12 124 -127 19
-25 40 -52 47 -60 35 -44 111 -141 133 -170 21 -28 71 -92 133 -170 7 -9 48
-63 91 -120 44 -58 82 -107 86 -110 3 -3 28 -35 54 -72 26 -38 50 -68 53 -68
2 0 10 6 17 13 7 6 49 46 94 87 45 41 82 78 82 82 0 14 -217 300 -232 306 -5
2 -8 8 -8 13 0 5 -9 19 -19 31 -11 13 -56 70 -101 128 -44 58 -86 112 -93 120
-7 8 -44 56 -82 105 -38 50 -95 123 -128 164 l-58 74 28 30 c46 49 64 68 158
172 50 54 102 110 117 123 15 14 25 30 21 36 -3 6 -3 8 1 5 4 -4 53 41 109 99
56 58 162 166 235 239 72 73 132 137 132 141 0 4 -43 48 -96 97 l-96 91 -153
-156 c-203 -205 -269 -274 -400 -415 -60 -65 -137 -147 -171 -183 l-60 -64
-31 31 c-17 17 -29 31 -26 31 3 0 -13 19 -36 42 -22 24 -41 46 -41 50 0 5 -7
8 -15 8 -8 0 -14 4 -12 8 2 8 -68 90 -152 181 -20 20 -85 91 -146 156 -211
227 -424 445 -433 445 -5 0 -17 -10 -28 -22z"/>
<path d="M1328 2205 c-2 -2 -19 -6 -38 -9 -127 -23 -213 -112 -195 -201 2 -11
4 -25 4 -32 1 -7 16 -29 33 -49 112 -128 384 -115 469 22 51 83 12 181 -91
234 -44 22 -170 46 -182 35z"/>
</g>
</svg>
